<?xml version="1.0" encoding="utf-8"?>
<!-- Generator: Adobe Illustrator 24.0.0, SVG Export Plug-In . SVG Version: 6.00 Build 0)  -->
<svg version="1.1" id="Layer_1" xmlns="http://www.w3.org/2000/svg" xmlns:xlink="http://www.w3.org/1999/xlink" x="0px" y="0px"
	 viewBox="0 0 74.2 61.1" style="enable-background:new 0 0 74.2 61.1;" xml:space="preserve">
<style type="text/css">
	.st0{fill-rule:evenodd;clip-rule:evenodd;fill:#4A3694;}
</style>
<path class="st0" d="M0,24h20.9v37.2h32.5v-2.7c0,0,0,0-0.1,0c-17.5,0-31.7-13.7-31.7-30.6c0-12.4,7.7-23,18.7-27.8H0V24L0,24z
	 M53.4,53.7v-3.8c-0.1,0-0.1,0-0.1,0c-12.6,0-22.9-9.9-22.9-22.1c0-12.2,10.3-22.1,22.9-22.1l21,0V2L53.3,2
	C38.5,2,26.4,13.6,26.4,27.8C26.4,42.1,38.5,53.7,53.4,53.7L53.4,53.7L53.4,53.7z M53.4,46.7V44c-0.1,0-0.1,0-0.2,0
	c-9.3,0-16.8-7.3-16.8-16.2c0-8.9,7.6-16.2,16.8-16.2l21,0V8.9l-21,0c-10.8,0-19.6,8.5-19.6,18.9c0,10.4,8.8,18.9,19.6,18.9H53.4
	L53.4,46.7z M53.4,41.6v-2.1h-0.2c-6.7,0-12.1-5.3-12.1-11.7c0-6.4,5.5-11.7,12.1-11.7l21.1,0V14l-21,0c-7.9,0-14.3,6.2-14.3,13.8
	c0,7.6,6.4,13.8,14.3,13.8H53.4L53.4,41.6z M53.4,37.6v-1.7l-0.2,0c-4.6,0-8.4-3.6-8.4-8.1c0-4.4,3.8-8.1,8.4-8.1l21.1,0V18H53.1
	c-5.6,0-10.2,4.4-10.2,9.8c0,5.4,4.6,9.8,10.2,9.8H53.4L53.4,37.6z M53.4,34.4V24h20.8v-2.8l-20.2,0v0.2c-0.2,0-0.5,0-0.7,0
	c-3.8,0-6.8,3-6.8,6.6C46.5,31.5,49.5,34.4,53.4,34.4L53.4,34.4L53.4,34.4z"/>
</svg>
