<svg width="208" height="48" viewBox="0 0 208 48" fill="none" xmlns="http://www.w3.org/2000/svg">
<rect x="160" width="48" height="48" fill="#E4051F"/>
<rect x="0.5" y="0.5" width="207" height="47" stroke="#E4051F"/>
<path d="M26.3923 29.0983C31.9984 29.0983 32.8743 26.4704 32.8743 25.2566V25.0564H29.1953C29.1453 25.2691 28.87 26.583 26.1295 26.583C23.6267 26.583 23.0011 25.2691 23.0011 24.268V24.1178C23.0011 23.0792 23.5517 21.9404 26.117 21.9404C28.8199 21.9404 29.1077 23.1167 29.1828 23.367H32.8743V23.2043C32.8743 22.003 32.0484 19.4377 26.3923 19.4377H25.9042C20.0979 19.4377 19.322 22.2783 19.322 24.0553V24.4182C19.322 26.1826 20.1855 29.0983 25.9042 29.0983H26.3923Z" fill="#E4051F"/>
<path d="M37.9046 21.8779H41.984C42.7849 21.8779 43.0602 22.2283 43.0602 22.6662V22.6788C43.0602 23.1292 42.7724 23.4796 41.984 23.4796H37.9046V21.8779ZM37.9046 25.7321H41.3083C42.7098 25.7321 43.1978 26.2827 43.1978 27.3464V28.4351C43.1978 28.6978 43.2229 28.823 43.3105 28.9231H46.9394V28.8605C46.8518 28.6978 46.7642 28.4601 46.7642 27.8094V26.4329C46.7642 25.2315 46.0009 24.4807 44.8496 24.2179C45.5504 24.0553 46.7267 23.4921 46.7267 22.1407V22.003C46.7267 20.4889 45.5254 19.6129 42.8099 19.6129H34.3507V28.9231H37.9046V25.7321Z" fill="#E4051F"/>
<path d="M48.3699 19.6129V28.9231H58.7688V26.5955L51.8737 26.5955V25.3191L58.531 25.3191V23.0542L51.8737 23.0542V21.8904L58.6687 21.8904V19.6129L48.3699 19.6129Z" fill="#E4051F"/>
<path d="M68.142 25.0939H65.0511L66.5778 21.8904L68.142 25.0939ZM70.0065 28.9231H73.8983L69.0305 19.6129H64.2502L59.6452 28.9231L63.2491 28.9231L63.9624 27.4214H69.2807L70.0065 28.9231Z" fill="#E4051F"/>
<path d="M76.7279 28.9231H80.2818V22.1532H84.2987V19.6129H72.7111V22.1532H76.7279V28.9231Z" fill="#E4051F"/>
<path d="M85.8449 19.6129V28.9231L96.2438 28.9231V26.5955H89.3488V25.3191H96.0061V23.0542H89.3488V21.8904H96.1437V19.6129H85.8449Z" fill="#E4051F"/>
<path d="M97.8967 28.9231H104.516C110.06 28.9231 111.224 26.5079 111.224 24.3931V24.0177C111.224 21.8278 109.872 19.6129 104.504 19.6129H97.8967V28.9231ZM101.451 22.0531L104.091 22.0531C107.194 22.0531 107.532 23.392 107.532 24.2054V24.2805C107.532 25.0939 107.194 26.4579 104.091 26.4579H101.451V22.0531Z" fill="#E4051F"/>
<path d="M117.124 28.9231H125.934C128.975 28.9231 129.863 27.6967 129.863 26.2326V26.0825C129.863 24.4432 128.549 23.8926 127.723 23.6924C128.337 23.5547 129.325 23.0291 129.325 21.8654V21.7277C129.325 20.6641 128.599 19.6129 125.884 19.6129H117.124V28.9231ZM124.808 21.7277C125.546 21.7277 125.759 22.003 125.759 22.3659V22.3909C125.759 22.7413 125.546 23.0417 124.808 23.0417H120.678V21.7277H124.808ZM125.033 25.1314C125.946 25.1314 126.134 25.4943 126.134 25.8948V25.9323C126.134 26.2952 125.959 26.7332 125.033 26.7332H120.678V25.1314H125.033Z" fill="#E4051F"/>
<path d="M134.604 28.9231H138.157V25.4443L143.138 19.6129H139.246L136.481 22.8289L133.765 19.6129H129.51L134.604 25.4193V28.9231Z" fill="#E4051F"/>
<path fill-rule="evenodd" clip-rule="evenodd" d="M171 21.5025H178.393V34.6904H189.895V33.7237H189.875C183.687 33.7237 178.641 28.8522 178.641 22.8791C178.641 18.4959 181.358 14.707 185.25 13H171V21.5025ZM189.896 32.0499V30.7052L189.85 30.7059C185.38 30.7059 181.733 27.1865 181.733 22.8704C181.733 18.5561 185.38 15.0361 189.85 15.0361L197.279 15.0336V13.7071L189.862 13.699C184.626 13.699 180.356 17.8214 180.356 22.8748C180.356 27.9281 184.626 32.0499 189.862 32.0499H189.896ZM189.896 29.5812V28.6152H189.832C186.551 28.6152 183.875 26.0318 183.875 22.8647C183.875 19.6977 186.551 17.1143 189.832 17.1143L197.279 17.1105V16.1533L189.841 16.1539C186.01 16.1539 182.886 19.1698 182.886 22.8672C182.886 26.5646 186.01 29.5812 189.841 29.5812H189.896ZM189.896 27.7683V27.0147L189.818 27.0129C187.449 27.0129 185.516 25.1479 185.516 22.8603C185.516 20.5722 187.449 18.7066 189.818 18.7066L197.279 18.711V17.9599L189.825 17.9568C187.026 17.9568 184.743 20.1603 184.743 22.8628C184.743 25.5647 187.026 27.7683 189.825 27.7683H189.896ZM189.896 26.3346V25.7146H189.808C188.176 25.7146 186.845 24.4307 186.845 22.856C186.845 21.2812 188.176 19.9973 189.808 19.9973L197.279 19.9948V19.3811L189.813 19.383C187.829 19.383 186.212 20.9433 186.212 22.8585C186.212 24.7724 187.829 26.3339 189.813 26.3339H189.896V26.3346ZM189.896 25.2118V21.5025H197.279V20.4982L190.119 20.4945V20.5597C190.038 20.5521 189.957 20.5483 189.877 20.5484C188.547 20.5484 187.461 21.5953 187.461 22.8791C187.461 24.1643 188.546 25.2118 189.877 25.2118H189.896Z" fill="white"/>
</svg>
